# xmcd CD database file
# 
# Track frame offsets:
# 	150
# 	20702
# 	41704
# 	79881
# 	101333
# 	123085
# 	137637
# 	160589
# 	195766
# 	213843
# 
# Disc length: 3268 seconds
# 
# Submitted via: Nero 5.5.9.0
# 
# Revision: 0
# Processed by: cddbd v1.4PL0 Copyright (c) Steve Scherf et al.
#
DISCID=750cc20a
DTITLE=Buddy Guy - Damn Right, I've Got the Blues
DYEAR=1900
DGENRE=
TTITLE0=Damn Right, I've Got the Blues
TTITLE1=Where Is the Next One Coming From?
TTITLE2=Five Long Years
TTITLE3=Mustang Sally
TTITLE4=There Is Something on Your Mind
TTITLE5=Early in the Morning
TTITLE6=Too Broke to Spend the Night
TTITLE7=Black Night
TTITLE8=Let Me Love You Baby
TTITLE9=Rememberin' Stevie
EXTD=
EXTT0=
EXTT1=
EXTT2=
EXTT3=
EXTT4=
EXTT5=
EXTT6=
EXTT7=
EXTT8=
EXTT9=
PLAYORDER=
